<?xml version="1.0" encoding="UTF-8" standalone="no"?><!-- Generator: Gravit.io --><svg xmlns="http://www.w3.org/2000/svg" xmlns:xlink="http://www.w3.org/1999/xlink" style="isolation:isolate" viewBox="5806 2526.828 10.423 14.172" width="10.423pt" height="14.172pt"><g><path d=" M 5806.009 2535.91 Q 5806.009 2530.651 5806.009 2526.828 Q 5805.991 2526.837 5806.009 2526.828 L 5806.774 2527.428 L 5806.774 2535.55" fill="rgb(0,151,224)"/><path d=" M 5806.009 2535.793 C 5806.604 2533.046 5808.244 2530.627 5811.216 2530.586 C 5814.09 2530.586 5816.423 2532.919 5816.423 2535.793 C 5816.423 2538.667 5814.09 2541 5811.216 2541 C 5808.342 2541 5806.009 2538.667 5806.009 2535.793 Z  M 5806.785 2535.085 C 5806.785 2532.639 5808.77 2530.654 5811.216 2530.654 C 5813.662 2530.654 5815.648 2532.639 5815.648 2535.085 C 5815.648 2537.531 5813.662 2539.517 5811.216 2539.517 C 5808.77 2539.517 5806.785 2537.531 5806.785 2535.085 Z " fill-rule="evenodd" fill="rgb(0,151,224)"/><path d=" M 5806.066 2535.526 C 5806.162 2535.128 5806.282 2534.739 5806.424 2534.364 Q 5806.59 2534.335 5806.851 2534.29 C 5806.804 2534.548 5806.779 2534.814 5806.779 2535.085 C 5806.779 2537.531 5808.765 2539.517 5811.211 2539.517 C 5811.566 2539.517 5811.911 2539.475 5812.242 2539.396 L 5812.276 2539.43 L 5812.387 2540.345 C 5809.346 2541.118 5806.057 2539.636 5806.066 2535.526 Z " fill="rgb(0,120,181)"/><path d=" M 5806.074 2535.87 C 5806.053 2535.413 5806.074 2534.922 5806.143 2534.396 Q 5806.131 2534.402 5806.774 2534.29 L 5806.774 2535.54 L 5806.074 2535.87 Z " fill="rgb(0,120,181)"/><path d=" M 5810.976 2530.595 C 5805.575 2531.105 5805.997 2535.971 5807.581 2537.741 C 5809.165 2539.51 5811.996 2539.714 5813.763 2538.136 Q 5813.762 2538.131 5813.763 2538.136 Q 5813.493 2537.076 5813.489 2537.073 C 5811.981 2538.372 5809.544 2538.287 5808.167 2536.799 C 5806.774 2535.292 5806.608 2531.165 5810.976 2530.66" fill="rgb(0,151,224)"/></g></svg>